<svg id="svg" version="1.1" xmlns="http://www.w3.org/2000/svg" xmlns:xlink="http://www.w3.org/1999/xlink" width="400" height="400" viewBox="0, 0, 400,400"><g id="svgg"><path id="path0" d="M336.307 0.171 C 328.598 1.130,320.746 4.076,314.756 8.258 C 311.159 10.770,21.466 300.315,20.462 302.402 C 19.220 304.985,-0.098 389.640,0.106 391.603 C 0.569 396.047,3.953 399.431,8.397 399.894 C 10.360 400.098,95.015 380.780,97.598 379.538 C 99.685 378.534,389.230 88.841,391.742 85.244 C 403.497 68.407,402.590 45.320,389.553 29.513 C 387.752 27.329,372.029 11.662,369.938 9.968 C 361.125 2.827,347.308 -1.198,336.307 0.171 M348.242 19.479 C 354.327 21.152,356.706 22.850,366.325 32.377 C 379.228 45.159,381.196 48.667,381.193 58.888 C 381.191 67.770,378.838 72.700,370.778 80.712 L 367.052 84.416 341.318 58.682 L 315.584 32.948 319.288 29.222 C 325.549 22.923,329.535 20.469,335.758 19.079 C 338.478 18.472,345.385 18.693,348.242 19.479 M230.131 221.345 L 106.384 345.092 80.645 319.355 L 54.907 293.618 178.654 169.870 L 302.402 46.123 328.140 71.860 L 353.878 97.597 230.131 221.345 M286.343 101.746 C 285.665 101.992,284.615 102.540,284.010 102.964 C 281.695 104.586,135.179 251.541,134.564 252.858 C 130.699 261.133,138.847 269.315,147.107 265.453 C 149.065 264.538,296.667 116.911,297.779 114.756 C 301.534 107.479,294.041 98.954,286.343 101.746 M117.154 271.524 C 115.015 272.064,113.713 273.035,109.486 277.248 C 104.356 282.362,103.665 283.504,103.653 286.891 C 103.625 294.663,111.834 299.071,118.210 294.707 C 120.699 293.003,127.019 286.330,127.863 284.514 C 131.096 277.559,124.577 269.651,117.154 271.524 M67.535 332.601 L 93.203 358.269 90.870 360.561 L 88.538 362.853 58.339 369.801 C 41.730 373.622,26.700 377.081,24.939 377.487 C 22.999 377.936,21.776 378.109,21.835 377.926 C 21.889 377.761,25.353 362.739,29.534 344.544 L 37.135 311.462 39.358 309.197 C 40.580 307.951,41.645 306.932,41.724 306.932 C 41.803 306.932,53.418 318.483,67.535 332.601 " stroke="none" fill="#000000" fill-rule="evenodd"></path></g></svg>